{"title":"Splice .2009.DVDRiP.XViD.AC3(5.1).Eng+Swe_Sub-Zen_Bud","uid":5866304,"size":1476342775,"categoryP":"video","categoryS":"movies","magnet":"?xt=urn:btih:04183e5d1d2efbc583064922149927f223c85766&amp;dn=Splice+.2009.DVDRiP.XViD.AC3%285.1%29.Eng%2BSwe_Sub-Zen_Bud&amp;tr=udp%3A%2F%2Ftracker.openbittorrent.com%3A80&amp;tr=udp%3A%2F%2Fopen.demonii.com%3A1337&amp;tr=udp%3A%2F%2Ftracker.coppersurfer.tk%3A6969&amp;tr=udp%3A%2F%2Fexodus.desync.com%3A6969","seeders":2,"leechers":0,"uploader":"Zen_Bud","files":-1,"time":1286226772,"description":"******** Splice .2009.DVDRiP.XViD.AC3(5.1).Eng+Swe_Sub-Zen_Bud ********\n\nFormat                           : AVI\nFile size                        : 1.37 GiB\nDuration                         : 1h 43mn\nOverall bit rate                 : 1 887 Kbps\n\nVideo\n\nFormat                           : MPEG-4 Visual\nCodec ID/Hint                    : XviD\nDuration                         : 1h 43mn\nBit rate                         : 1 429 Kbps\nWidth                            : 720 pixels\nHeight                           : 480 pixels\nDisplay aspect ratio             : 16:9\nStream size                      : 1.04 GiB (76%)\nWriting library                  : XviD 1.1.2 (UTC 2006-11-01)\n\nAudio\n\nFormat                           : AC-3\nDuration                         : 1h 43mn\nBit rate                         : 448 Kbps\nChannel(s)                       : 6 channels\nChannel positions                : Front: L C R, Side: L R, LFE\nSampling rate                    : 48.0 KHz\nBit depth                        : 16 bits\nStream size                      : 333 MiB (24%)\nLanguage                         : English\n\nText #1\nLanguage                         : English\n\nText #2\nLanguage                         : Swedish\n\n","torrent":{"xt":"urn:btih:04183e5d1d2efbc583064922149927f223c85766","amp;dn":"Splice+.2009.DVDRiP.XViD.AC3%285.1%29.Eng%2BSwe_Sub-Zen_Bud","amp;tr":["udp%3A%2F%2Ftracker.openbittorrent.com%3A80","udp%3A%2F%2Fopen.demonii.com%3A1337","udp%3A%2F%2Ftracker.coppersurfer.tk%3A6969","udp%3A%2F%2Fexodus.desync.com%3A6969"],"infoHash":"04183e5d1d2efbc583064922149927f223c85766","infoHashBuffer":{"type":"Buffer","data":[4,24,62,93,29,46,251,197,131,6,73,34,20,153,39,242,35,200,87,102]},"announce":[],"urlList":[]}}